<?xml version="1.0" encoding="UTF-8"?>
<svg version="1.1" xmlns="http://www.w3.org/2000/svg" width="64" height="64">
<path d="M0 0 C5.93431181 4.27133768 10.20568179 9.34232669 12.03515625 16.46484375 C13.04681569 25.45263916 12.4657593 33.03709197 7.03515625 40.46484375 C2.2754769 45.78980568 -3.04719702 49.03485813 -10.16796875 49.81640625 C-19.36512824 50.19464441 -26.15160915 48.8299187 -33.0625 42.5625 C-39.50376135 35.67154073 -40.45086305 29.20915183 -40.265625 19.9375 C-39.51985175 11.32720885 -35.75963599 6.67407018 -29.37890625 1.09375 C-21.20769726 -4.41983277 -8.67190296 -4.5547752 0 0 Z M-31.96484375 17.46484375 C-31.96484375 18.12484375 -31.96484375 18.78484375 -31.96484375 19.46484375 C-29.26354606 20.67110252 -26.55573015 21.85477767 -23.83984375 23.02734375 C-23.07929688 23.36958984 -22.31875 23.71183594 -21.53515625 24.06445312 C-16.93489173 26.02749704 -13.91084745 27.06032881 -8.96484375 25.46484375 C-6.43982058 24.33750471 -4.02819312 23.18769493 -1.58984375 21.90234375 C-0.62884766 21.40831055 -0.62884766 21.40831055 0.3515625 20.90429688 C1.91654257 20.09844893 3.47639646 19.28265882 5.03515625 18.46484375 C5.03515625 17.80484375 5.03515625 17.14484375 5.03515625 16.46484375 C-9.06928322 13.13682994 -18.2809835 13.47371784 -31.96484375 17.46484375 Z M-30.96484375 23.46484375 C-30.96484375 24.78484375 -30.96484375 26.10484375 -30.96484375 27.46484375 C-29.97484375 27.46484375 -28.98484375 27.46484375 -27.96484375 27.46484375 C-27.96484375 26.47484375 -27.96484375 25.48484375 -27.96484375 24.46484375 C-28.95484375 24.13484375 -29.94484375 23.80484375 -30.96484375 23.46484375 Z M-3.49609375 26.375 C-8.98334516 29.58678406 -12.81747706 29.90262565 -18.96484375 28.46484375 C-20.98509174 27.86231365 -22.99717844 27.2216381 -24.96484375 26.46484375 C-23.98698945 31.26184862 -23.98698945 31.26184862 -21.2578125 35.16796875 C-16.84913856 37.66146066 -11.86503577 37.05393787 -6.96484375 36.46484375 C-3.67580354 35.15428483 -3.67580354 35.15428483 -1.96484375 32.46484375 C-1.07428639 28.8230204 -1.07428639 28.8230204 -0.96484375 25.46484375 C-2.11846189 25.37968641 -2.11846189 25.37968641 -3.49609375 26.375 Z M-30.96484375 30.46484375 C-30.96484375 32.11484375 -30.96484375 33.76484375 -30.96484375 35.46484375 C-29.97484375 35.46484375 -28.98484375 35.46484375 -27.96484375 35.46484375 C-27.96484375 33.81484375 -27.96484375 32.16484375 -27.96484375 30.46484375 C-28.95484375 30.46484375 -29.94484375 30.46484375 -30.96484375 30.46484375 Z " fill="#8E1F60" transform="translate(45.96484375,8.53515625)"/>
</svg>
